<mxfile host="app.diagrams.net" agent="Mozilla/5.0 (Windows NT 10.0; Win64; x64) AppleWebKit/537.36 (KHTML, like Gecko) Chrome/129.0.0.0 Safari/537.36 Edg/129.0.0.0" version="24.7.16">
  <diagram name="Trang-1" id="Bekt-y-PJ1qCdeKItsAY">
    <mxGraphModel dx="1132" dy="454" grid="1" gridSize="10" guides="1" tooltips="1" connect="1" arrows="1" fold="1" page="0" pageScale="1" pageWidth="827" pageHeight="1169" math="1" shadow="0">
      <root>
        <mxCell id="0" />
        <mxCell id="1" parent="0" />
        <mxCell id="-fYXBGmqB5nLXMHsJgcJ-5" value="" style="edgeStyle=none;curved=1;rounded=0;orthogonalLoop=1;jettySize=auto;html=1;fontSize=12;startSize=8;endSize=8;entryX=0;entryY=0.5;entryDx=0;entryDy=0;exitX=1;exitY=0.5;exitDx=0;exitDy=0;fontFamily=Times New Roman;" parent="1" source="-fYXBGmqB5nLXMHsJgcJ-1" target="-fYXBGmqB5nLXMHsJgcJ-6" edge="1">
          <mxGeometry relative="1" as="geometry">
            <mxPoint x="150" y="40" as="targetPoint" />
          </mxGeometry>
        </mxCell>
        <mxCell id="-fYXBGmqB5nLXMHsJgcJ-1" value="Start" style="rounded=1;whiteSpace=wrap;html=1;fillColor=#d5e8d4;strokeColor=#82b366;fontFamily=Times New Roman;" parent="1" vertex="1">
          <mxGeometry x="-180" y="55" width="120" height="60" as="geometry" />
        </mxCell>
        <mxCell id="-fYXBGmqB5nLXMHsJgcJ-10" value="" style="edgeStyle=none;curved=1;rounded=0;orthogonalLoop=1;jettySize=auto;html=1;fontSize=12;startSize=8;endSize=8;exitX=0.5;exitY=1;exitDx=0;exitDy=0;entryX=0.5;entryY=0;entryDx=0;entryDy=0;fontFamily=Times New Roman;" parent="1" source="-fYXBGmqB5nLXMHsJgcJ-6" target="-fYXBGmqB5nLXMHsJgcJ-9" edge="1">
          <mxGeometry relative="1" as="geometry" />
        </mxCell>
        <mxCell id="-fYXBGmqB5nLXMHsJgcJ-6" value="&lt;span style=&quot;color: rgb(60, 64, 67); font-size: 24px; text-align: start; white-space-collapse: preserve; background-color: rgb(245, 245, 245);&quot;&gt;valueA = 0, valueB = 1, result = 0&lt;/span&gt;" style="rounded=0;whiteSpace=wrap;html=1;fontFamily=Times New Roman;" parent="1" vertex="1">
          <mxGeometry x="70" y="30" width="160" height="110" as="geometry" />
        </mxCell>
        <mxCell id="-fYXBGmqB5nLXMHsJgcJ-8" value="Exercise 1.15" style="rounded=0;whiteSpace=wrap;html=1;strokeWidth=5;fontFamily=Times New Roman;" parent="1" vertex="1">
          <mxGeometry x="250" y="30" width="260" height="60" as="geometry" />
        </mxCell>
        <mxCell id="-fYXBGmqB5nLXMHsJgcJ-13" value="" style="edgeStyle=none;curved=1;rounded=0;orthogonalLoop=1;jettySize=auto;html=1;fontSize=12;startSize=8;endSize=8;fontFamily=Times New Roman;" parent="1" source="-fYXBGmqB5nLXMHsJgcJ-9" target="-fYXBGmqB5nLXMHsJgcJ-12" edge="1">
          <mxGeometry relative="1" as="geometry" />
        </mxCell>
        <mxCell id="-fYXBGmqB5nLXMHsJgcJ-9" value="&lt;div style=&quot;&quot;&gt;&lt;font color=&quot;#3c4043&quot;&gt;&lt;span style=&quot;font-size: 24px; white-space-collapse: preserve; background-color: rgb(245, 245, 245);&quot;&gt;result = valueA +valueB &lt;/span&gt;&lt;/font&gt;&lt;/div&gt;" style="rounded=0;whiteSpace=wrap;html=1;align=center;fontFamily=Times New Roman;" parent="1" vertex="1">
          <mxGeometry x="-30" y="180" width="360" height="70" as="geometry" />
        </mxCell>
        <mxCell id="-fYXBGmqB5nLXMHsJgcJ-18" value="" style="edgeStyle=none;curved=1;rounded=0;orthogonalLoop=1;jettySize=auto;html=1;fontSize=12;startSize=8;endSize=8;fontFamily=Times New Roman;" parent="1" source="-fYXBGmqB5nLXMHsJgcJ-12" edge="1">
          <mxGeometry relative="1" as="geometry">
            <mxPoint x="150" y="470" as="targetPoint" />
          </mxGeometry>
        </mxCell>
        <mxCell id="-fYXBGmqB5nLXMHsJgcJ-12" value="is&lt;div&gt;result &amp;lt;= 1000&lt;/div&gt;" style="rhombus;whiteSpace=wrap;html=1;fillColor=#ffe6cc;strokeColor=#d79b00;fontFamily=Times New Roman;" parent="1" vertex="1">
          <mxGeometry x="70" y="300" width="160" height="120" as="geometry" />
        </mxCell>
        <mxCell id="-fYXBGmqB5nLXMHsJgcJ-16" value="" style="edgeStyle=orthogonalEdgeStyle;rounded=0;orthogonalLoop=1;jettySize=auto;html=1;exitX=1;exitY=0.5;exitDx=0;exitDy=0;fontSize=12;startSize=8;endSize=8;entryX=0;entryY=0.5;entryDx=0;entryDy=0;fontFamily=Times New Roman;" parent="1" source="-fYXBGmqB5nLXMHsJgcJ-12" target="-fYXBGmqB5nLXMHsJgcJ-19" edge="1">
          <mxGeometry relative="1" as="geometry">
            <mxPoint x="530" y="360" as="targetPoint" />
            <mxPoint x="230" y="360" as="sourcePoint" />
            <Array as="points" />
          </mxGeometry>
        </mxCell>
        <mxCell id="-fYXBGmqB5nLXMHsJgcJ-15" value="True" style="text;html=1;align=center;verticalAlign=middle;resizable=0;points=[];autosize=1;strokeColor=none;fillColor=none;fontSize=16;fontFamily=Times New Roman;" parent="1" vertex="1">
          <mxGeometry x="230" y="330" width="50" height="30" as="geometry" />
        </mxCell>
        <mxCell id="-fYXBGmqB5nLXMHsJgcJ-21" value="" style="edgeStyle=orthogonalEdgeStyle;rounded=0;orthogonalLoop=1;jettySize=auto;html=1;fontSize=12;startSize=8;endSize=8;fontFamily=Times New Roman;exitX=1;exitY=0.5;exitDx=0;exitDy=0;" parent="1" source="-fYXBGmqB5nLXMHsJgcJ-19" target="-fYXBGmqB5nLXMHsJgcJ-20" edge="1">
          <mxGeometry relative="1" as="geometry" />
        </mxCell>
        <mxCell id="-fYXBGmqB5nLXMHsJgcJ-19" value="valueA = valueB" style="whiteSpace=wrap;html=1;fontFamily=Times New Roman;" parent="1" vertex="1">
          <mxGeometry x="290" y="330" width="120" height="60" as="geometry" />
        </mxCell>
        <mxCell id="-fYXBGmqB5nLXMHsJgcJ-22" style="edgeStyle=orthogonalEdgeStyle;rounded=0;orthogonalLoop=1;jettySize=auto;html=1;entryX=1;entryY=0.5;entryDx=0;entryDy=0;fontSize=12;startSize=8;endSize=8;exitX=0.5;exitY=0;exitDx=0;exitDy=0;fontFamily=Times New Roman;" parent="1" source="-fYXBGmqB5nLXMHsJgcJ-20" target="-fYXBGmqB5nLXMHsJgcJ-9" edge="1">
          <mxGeometry relative="1" as="geometry">
            <Array as="points">
              <mxPoint x="440" y="215" />
            </Array>
          </mxGeometry>
        </mxCell>
        <mxCell id="-fYXBGmqB5nLXMHsJgcJ-20" value="valueB = result&amp;nbsp;" style="whiteSpace=wrap;html=1;fontFamily=Times New Roman;" parent="1" vertex="1">
          <mxGeometry x="380" y="250" width="120" height="60" as="geometry" />
        </mxCell>
        <mxCell id="-fYXBGmqB5nLXMHsJgcJ-23" value="End" style="rounded=1;whiteSpace=wrap;html=1;fillColor=#d5e8d4;strokeColor=#82b366;fontFamily=Times New Roman;" parent="1" vertex="1">
          <mxGeometry x="90" y="470" width="120" height="60" as="geometry" />
        </mxCell>
        <mxCell id="-fYXBGmqB5nLXMHsJgcJ-24" value="False" style="text;html=1;align=center;verticalAlign=middle;resizable=0;points=[];autosize=1;strokeColor=none;fillColor=none;fontSize=16;fontFamily=Times New Roman;" parent="1" vertex="1">
          <mxGeometry x="150" y="420" width="60" height="30" as="geometry" />
        </mxCell>
        <mxCell id="GPguVBvdiYBfZy5awKlW-1" value="&lt;b&gt;Step 1:&lt;/b&gt; Start&lt;div&gt;&lt;b&gt;Step 2:&lt;/b&gt; Gán giá trị valueA =0, valueB =1,result = 0&lt;/div&gt;&lt;div&gt;&lt;b&gt;Step 3:&lt;/b&gt; Gán result = valueA +valueB&amp;nbsp;&lt;/div&gt;&lt;div&gt;&lt;b&gt;Step 4:&lt;/b&gt;&lt;u&gt;Thiết lập điều kiện:&lt;/u&gt;&lt;b&gt;&amp;nbsp;&lt;/b&gt;Nếu result &amp;lt;= 1000 đúng thì thực hiện gán lần lược valueA = valueB và valueB = result sau đó quay lại &lt;b&gt;bước 4&lt;/b&gt;(Nếu sai thì thực hiện &lt;b&gt;bước 5&lt;/b&gt;)&lt;/div&gt;&lt;div&gt;&lt;b&gt;Step 5:&lt;/b&gt; End&lt;/div&gt;" style="rounded=0;whiteSpace=wrap;html=1;strokeWidth=3;verticalAlign=top;align=left;" parent="1" vertex="1">
          <mxGeometry x="-240" y="260" width="310" height="180" as="geometry" />
        </mxCell>
      </root>
    </mxGraphModel>
  </diagram>
</mxfile>
